Coordinates
version=1
nRows=5
nColumns=46
inDegrees=yes

Units are S.I. units (second, meters, Newtons, ...)
Angles are in degrees.

endheader
time	pelvis_tilt	pelvis_list	pelvis_rotation	pelvis_tx	pelvis_ty	pelvis_tz	bb_angle	bb_tx	bb_ty	bb_tz	hip_flexion_r	hip_adduction_r	hip_rotation_r	knee_angle_r	knee_angle_r_beta	ankle_angle_r	subtalar_angle_r	mtp_angle_r	crank_angle_r	hip_flexion_l	hip_adduction_l	hip_rotation_l	knee_angle_l	knee_angle_l_beta	ankle_angle_l	subtalar_angle_l	mtp_angle_l	crank_angle_l	lumbar_extension	lumbar_bending	lumbar_rotation	arm_flex_r	arm_add_r	arm_rot_r	elbow_flex_r	pro_sup_r	wrist_flex_r	wrist_dev_r	arm_flex_l	arm_add_l	arm_rot_l	elbow_flex_l	pro_sup_l	wrist_flex_l	wrist_dev_l
      7.50500000	    -11.66304418	     -9.84637747	     -3.87440175	      0.18398890	      1.05948426	     -0.26431429	      0.00000000	      0.50000000	      0.00000000	      0.25000000	     81.98531260	      4.02577709	      2.93724262	    107.32508771	      1.87317615	     16.57765160	      3.66733389	      0.00000000	      0.00000000	     36.42106522	    -14.89937777	     -1.12226460	     44.60082881	      0.77843131	    -12.16831018	     -7.86188929	      0.00000000	      0.00000000	    -67.62160144	     10.64571140	     13.34184856	     89.48109901	     -9.63251071	     24.10964995	     56.84250000	     40.39767461	      0.00000000	      0.00000000	     86.67586018	    -14.51447592	     27.72187235	     49.90873805	     38.76167180	      0.00000000	      0.00000000
      7.51000000	    -11.60350577	    -10.00220356	     -3.70985544	      0.18380871	      1.06058687	     -0.26371543	      0.00000000	      0.50000000	      0.00000000	      0.25000000	     81.21256341	      4.02664510	      2.47289306	    105.36823416	      1.83902261	     17.75944847	      3.06750179	      0.00000000	      0.00000000	     36.91653416	    -14.89271182	     -0.34423728	     46.65023071	      0.81420012	    -12.10786426	     -8.87311572	      0.00000000	      0.00000000	    -67.86645505	     10.69299851	     13.41312375	     89.48835310	     -9.64471165	     24.11190931	     56.97397016	     40.33623213	      0.00000000	      0.00000000	     86.73642068	    -14.47769732	     27.42106854	     49.98316432	     38.77374899	      0.00000000	      0.00000000
      7.51500000	    -11.51669195	    -10.16012612	     -3.48495761	      0.18377147	      1.06162266	     -0.26293724	      0.00000000	      0.50000000	      0.00000000	      0.25000000	     80.31057312	      3.97415323	      1.99102664	    103.31761747	      1.80323260	     18.81531806	      2.57936383	      0.00000000	      0.00000000	     37.45954494	    -14.86956277	      0.51460226	     48.81682581	      0.85201434	    -12.24223742	     -9.19360488	      0.00000000	      0.00000000	    -68.06138600	     10.74842810	     13.39811998	     89.48849346	     -9.64842573	     24.09421258	     57.11876179	     40.25025506	      0.00000000	      0.00000000	     86.75133136	    -14.34076309	     27.01134577	     50.09852739	     38.79130266	      0.00000000	      0.00000000
      7.52000000	    -11.45150195	    -10.22301046	     -3.26833139	      0.18373032	      1.06244735	     -0.26221071	      0.00000000	      0.50000000	      0.00000000	      0.25000000	     79.33781572	      3.78370054	      1.49222953	    101.13710573	      1.76517549	     19.76543745	      2.16121976	      0.00000000	      0.00000000	     38.10547299	    -14.75682846	      1.34077567	     51.12383919	      0.89227932	    -12.00674040	     -9.45892832	      0.00000000	      0.00000000	    -68.19041374	     10.70518027	     13.42028425	     89.47407383	     -9.80176649	     24.03683498	     57.34814973	     39.76097704	      0.00000000	      0.00000000	     86.55933067	    -13.62136525	     25.47509026	     50.29115206	     38.85870488	      0.00000000	      0.00000000
      7.52500000	    -11.16068045	     -9.97969749	     -3.07259736	      0.18398607	      1.06344123	     -0.26132562	      0.00000000	      0.50000000	      0.00000000	      0.25000000	     78.05966919	      3.67863301	      1.45839490	     98.95743656	      1.72713309	     20.88982686	      1.76092693	      0.00000000	      0.00000000	     38.40631412	    -14.36429518	      1.93915308	     53.33772606	      0.93091894	    -11.64809538	    -10.39427444	      0.00000000	      0.00000000	    -68.44258550	     10.37850108	     12.94383871	     89.45628257	     -9.82837555	     24.01807511	     57.31536304	     39.69906557	      0.00000000	      0.00000000	     86.74441131	    -13.54407137	     25.34061952	     50.37197607	     38.87841766	      0.00000000	      0.00000000
